<mxfile host="app.diagrams.net" agent="Mozilla/5.0 (Windows NT 10.0; Win64; x64) AppleWebKit/537.36 (KHTML, like Gecko) Chrome/126.0.0.0 Safari/537.36 OPR/112.0.0.0" version="24.7.7">
  <diagram id="C5RBs43oDa-KdzZeNtuy" name="Page-1">
    <mxGraphModel dx="2318" dy="1247" grid="1" gridSize="10" guides="1" tooltips="1" connect="1" arrows="1" fold="1" page="1" pageScale="1" pageWidth="827" pageHeight="1169" math="0" shadow="0">
      <root>
        <mxCell id="WIyWlLk6GJQsqaUBKTNV-0" />
        <mxCell id="WIyWlLk6GJQsqaUBKTNV-1" parent="WIyWlLk6GJQsqaUBKTNV-0" />
        <mxCell id="dYaEgwXNUxHHA8j_fnem-1" value="Request /api" style="strokeWidth=2;html=1;shape=mxgraph.flowchart.start_1;whiteSpace=wrap;strokeColor=#82B366;" vertex="1" parent="WIyWlLk6GJQsqaUBKTNV-1">
          <mxGeometry x="364" y="90" width="100" height="60" as="geometry" />
        </mxCell>
        <mxCell id="dYaEgwXNUxHHA8j_fnem-8" style="edgeStyle=orthogonalEdgeStyle;rounded=0;orthogonalLoop=1;jettySize=auto;html=1;exitX=1;exitY=0.5;exitDx=0;exitDy=0;exitPerimeter=0;entryX=0.5;entryY=0;entryDx=0;entryDy=0;strokeColor=#82B366;" edge="1" parent="WIyWlLk6GJQsqaUBKTNV-1" source="dYaEgwXNUxHHA8j_fnem-3" target="dYaEgwXNUxHHA8j_fnem-4">
          <mxGeometry relative="1" as="geometry" />
        </mxCell>
        <mxCell id="dYaEgwXNUxHHA8j_fnem-18" value="YES" style="edgeLabel;html=1;align=center;verticalAlign=middle;resizable=0;points=[];" vertex="1" connectable="0" parent="dYaEgwXNUxHHA8j_fnem-8">
          <mxGeometry x="-0.4091" y="3" relative="1" as="geometry">
            <mxPoint as="offset" />
          </mxGeometry>
        </mxCell>
        <mxCell id="dYaEgwXNUxHHA8j_fnem-38" style="edgeStyle=orthogonalEdgeStyle;rounded=0;orthogonalLoop=1;jettySize=auto;html=1;exitX=0;exitY=0.5;exitDx=0;exitDy=0;exitPerimeter=0;entryX=0.5;entryY=0;entryDx=0;entryDy=0;strokeColor=#B85450;" edge="1" parent="WIyWlLk6GJQsqaUBKTNV-1" source="dYaEgwXNUxHHA8j_fnem-3" target="dYaEgwXNUxHHA8j_fnem-37">
          <mxGeometry relative="1" as="geometry" />
        </mxCell>
        <mxCell id="dYaEgwXNUxHHA8j_fnem-39" value="NO" style="edgeLabel;html=1;align=center;verticalAlign=middle;resizable=0;points=[];" vertex="1" connectable="0" parent="dYaEgwXNUxHHA8j_fnem-38">
          <mxGeometry x="-0.0268" y="-4" relative="1" as="geometry">
            <mxPoint as="offset" />
          </mxGeometry>
        </mxCell>
        <mxCell id="dYaEgwXNUxHHA8j_fnem-3" value="req&lt;span style=&quot;background-color: initial;&quot;&gt;uest has&lt;/span&gt;&lt;div&gt;&lt;span style=&quot;background-color: initial;&quot;&gt;ticket cookie?&lt;/span&gt;&lt;/div&gt;" style="strokeWidth=2;html=1;shape=mxgraph.flowchart.decision;whiteSpace=wrap;strokeColor=#663300;" vertex="1" parent="WIyWlLk6GJQsqaUBKTNV-1">
          <mxGeometry x="364" y="190" width="100" height="100" as="geometry" />
        </mxCell>
        <mxCell id="dYaEgwXNUxHHA8j_fnem-10" style="edgeStyle=orthogonalEdgeStyle;rounded=0;orthogonalLoop=1;jettySize=auto;html=1;exitX=0.5;exitY=1;exitDx=0;exitDy=0;entryX=0.5;entryY=0;entryDx=0;entryDy=0;" edge="1" parent="WIyWlLk6GJQsqaUBKTNV-1" source="dYaEgwXNUxHHA8j_fnem-4" target="dYaEgwXNUxHHA8j_fnem-9">
          <mxGeometry relative="1" as="geometry" />
        </mxCell>
        <mxCell id="dYaEgwXNUxHHA8j_fnem-4" value="get access_token from store" style="rounded=1;whiteSpace=wrap;html=1;absoluteArcSize=1;arcSize=14;strokeWidth=2;" vertex="1" parent="WIyWlLk6GJQsqaUBKTNV-1">
          <mxGeometry x="510" y="320" width="100" height="100" as="geometry" />
        </mxCell>
        <mxCell id="dYaEgwXNUxHHA8j_fnem-6" style="edgeStyle=orthogonalEdgeStyle;rounded=0;orthogonalLoop=1;jettySize=auto;html=1;exitX=0.5;exitY=1;exitDx=0;exitDy=0;exitPerimeter=0;entryX=0.5;entryY=0;entryDx=0;entryDy=0;entryPerimeter=0;" edge="1" parent="WIyWlLk6GJQsqaUBKTNV-1" source="dYaEgwXNUxHHA8j_fnem-1" target="dYaEgwXNUxHHA8j_fnem-3">
          <mxGeometry relative="1" as="geometry" />
        </mxCell>
        <mxCell id="dYaEgwXNUxHHA8j_fnem-12" style="edgeStyle=orthogonalEdgeStyle;rounded=0;orthogonalLoop=1;jettySize=auto;html=1;exitX=0.5;exitY=1;exitDx=0;exitDy=0;entryX=0.5;entryY=0;entryDx=0;entryDy=0;" edge="1" parent="WIyWlLk6GJQsqaUBKTNV-1" source="dYaEgwXNUxHHA8j_fnem-9" target="dYaEgwXNUxHHA8j_fnem-11">
          <mxGeometry relative="1" as="geometry" />
        </mxCell>
        <mxCell id="dYaEgwXNUxHHA8j_fnem-9" value="remove ticket cookie from request and add authorization header" style="rounded=1;whiteSpace=wrap;html=1;absoluteArcSize=1;arcSize=14;strokeWidth=2;" vertex="1" parent="WIyWlLk6GJQsqaUBKTNV-1">
          <mxGeometry x="510" y="460" width="100" height="100" as="geometry" />
        </mxCell>
        <mxCell id="dYaEgwXNUxHHA8j_fnem-11" value="Send request to microservice" style="rounded=1;whiteSpace=wrap;html=1;absoluteArcSize=1;arcSize=14;strokeWidth=2;" vertex="1" parent="WIyWlLk6GJQsqaUBKTNV-1">
          <mxGeometry x="510" y="600" width="100" height="100" as="geometry" />
        </mxCell>
        <mxCell id="dYaEgwXNUxHHA8j_fnem-13" value="Is http 200?" style="strokeWidth=2;html=1;shape=mxgraph.flowchart.decision;whiteSpace=wrap;strokeColor=#663300;" vertex="1" parent="WIyWlLk6GJQsqaUBKTNV-1">
          <mxGeometry x="510" y="740" width="100" height="100" as="geometry" />
        </mxCell>
        <mxCell id="dYaEgwXNUxHHA8j_fnem-14" style="edgeStyle=orthogonalEdgeStyle;rounded=0;orthogonalLoop=1;jettySize=auto;html=1;exitX=0.5;exitY=1;exitDx=0;exitDy=0;entryX=0.5;entryY=0;entryDx=0;entryDy=0;entryPerimeter=0;" edge="1" parent="WIyWlLk6GJQsqaUBKTNV-1" source="dYaEgwXNUxHHA8j_fnem-11" target="dYaEgwXNUxHHA8j_fnem-13">
          <mxGeometry relative="1" as="geometry" />
        </mxCell>
        <mxCell id="dYaEgwXNUxHHA8j_fnem-15" value="return data to caller" style="strokeWidth=2;html=1;shape=mxgraph.flowchart.terminator;whiteSpace=wrap;strokeColor=#B85450;" vertex="1" parent="WIyWlLk6GJQsqaUBKTNV-1">
          <mxGeometry x="510" y="910" width="100" height="60" as="geometry" />
        </mxCell>
        <mxCell id="dYaEgwXNUxHHA8j_fnem-16" style="edgeStyle=orthogonalEdgeStyle;rounded=0;orthogonalLoop=1;jettySize=auto;html=1;exitX=0.5;exitY=1;exitDx=0;exitDy=0;exitPerimeter=0;entryX=0.5;entryY=0;entryDx=0;entryDy=0;entryPerimeter=0;strokeColor=#82B366;" edge="1" parent="WIyWlLk6GJQsqaUBKTNV-1" source="dYaEgwXNUxHHA8j_fnem-13" target="dYaEgwXNUxHHA8j_fnem-15">
          <mxGeometry relative="1" as="geometry" />
        </mxCell>
        <mxCell id="dYaEgwXNUxHHA8j_fnem-17" value="YES" style="edgeLabel;html=1;align=center;verticalAlign=middle;resizable=0;points=[];" vertex="1" connectable="0" parent="dYaEgwXNUxHHA8j_fnem-16">
          <mxGeometry x="-0.0857" y="-2" relative="1" as="geometry">
            <mxPoint as="offset" />
          </mxGeometry>
        </mxCell>
        <mxCell id="dYaEgwXNUxHHA8j_fnem-22" style="edgeStyle=orthogonalEdgeStyle;rounded=0;orthogonalLoop=1;jettySize=auto;html=1;exitX=1;exitY=0.5;exitDx=0;exitDy=0;exitPerimeter=0;entryX=0;entryY=0.5;entryDx=0;entryDy=0;strokeColor=#82B366;" edge="1" parent="WIyWlLk6GJQsqaUBKTNV-1" source="dYaEgwXNUxHHA8j_fnem-19" target="dYaEgwXNUxHHA8j_fnem-21">
          <mxGeometry relative="1" as="geometry" />
        </mxCell>
        <mxCell id="dYaEgwXNUxHHA8j_fnem-31" value="YES" style="edgeLabel;html=1;align=center;verticalAlign=middle;resizable=0;points=[];" vertex="1" connectable="0" parent="dYaEgwXNUxHHA8j_fnem-22">
          <mxGeometry x="-0.0667" y="-2" relative="1" as="geometry">
            <mxPoint as="offset" />
          </mxGeometry>
        </mxCell>
        <mxCell id="dYaEgwXNUxHHA8j_fnem-19" value="is 401?" style="strokeWidth=2;html=1;shape=mxgraph.flowchart.decision;whiteSpace=wrap;strokeColor=#663300;" vertex="1" parent="WIyWlLk6GJQsqaUBKTNV-1">
          <mxGeometry x="700" y="740" width="100" height="100" as="geometry" />
        </mxCell>
        <mxCell id="dYaEgwXNUxHHA8j_fnem-20" style="edgeStyle=orthogonalEdgeStyle;rounded=0;orthogonalLoop=1;jettySize=auto;html=1;exitX=1;exitY=0.5;exitDx=0;exitDy=0;exitPerimeter=0;entryX=0;entryY=0.5;entryDx=0;entryDy=0;entryPerimeter=0;strokeColor=#B85450;" edge="1" parent="WIyWlLk6GJQsqaUBKTNV-1" source="dYaEgwXNUxHHA8j_fnem-13" target="dYaEgwXNUxHHA8j_fnem-19">
          <mxGeometry relative="1" as="geometry" />
        </mxCell>
        <mxCell id="dYaEgwXNUxHHA8j_fnem-43" value="NO" style="edgeLabel;html=1;align=center;verticalAlign=middle;resizable=0;points=[];" vertex="1" connectable="0" parent="dYaEgwXNUxHHA8j_fnem-20">
          <mxGeometry x="-0.0444" y="-4" relative="1" as="geometry">
            <mxPoint as="offset" />
          </mxGeometry>
        </mxCell>
        <mxCell id="dYaEgwXNUxHHA8j_fnem-30" style="edgeStyle=orthogonalEdgeStyle;rounded=0;orthogonalLoop=1;jettySize=auto;html=1;exitX=1;exitY=0.5;exitDx=0;exitDy=0;entryX=0;entryY=0.5;entryDx=0;entryDy=0;" edge="1" parent="WIyWlLk6GJQsqaUBKTNV-1" source="dYaEgwXNUxHHA8j_fnem-21" target="dYaEgwXNUxHHA8j_fnem-23">
          <mxGeometry relative="1" as="geometry" />
        </mxCell>
        <mxCell id="dYaEgwXNUxHHA8j_fnem-21" value="get refresh_token from store" style="rounded=1;whiteSpace=wrap;html=1;absoluteArcSize=1;arcSize=14;strokeWidth=2;" vertex="1" parent="WIyWlLk6GJQsqaUBKTNV-1">
          <mxGeometry x="890" y="740" width="100" height="100" as="geometry" />
        </mxCell>
        <mxCell id="dYaEgwXNUxHHA8j_fnem-23" value="refresh token to oidc" style="rounded=1;whiteSpace=wrap;html=1;absoluteArcSize=1;arcSize=14;strokeWidth=2;" vertex="1" parent="WIyWlLk6GJQsqaUBKTNV-1">
          <mxGeometry x="1040" y="740" width="100" height="100" as="geometry" />
        </mxCell>
        <mxCell id="dYaEgwXNUxHHA8j_fnem-28" style="edgeStyle=orthogonalEdgeStyle;rounded=0;orthogonalLoop=1;jettySize=auto;html=1;exitX=0.5;exitY=0;exitDx=0;exitDy=0;exitPerimeter=0;entryX=0.5;entryY=1;entryDx=0;entryDy=0;strokeColor=#82B366;" edge="1" parent="WIyWlLk6GJQsqaUBKTNV-1" source="dYaEgwXNUxHHA8j_fnem-26" target="dYaEgwXNUxHHA8j_fnem-27">
          <mxGeometry relative="1" as="geometry" />
        </mxCell>
        <mxCell id="dYaEgwXNUxHHA8j_fnem-36" value="YES" style="edgeLabel;html=1;align=center;verticalAlign=middle;resizable=0;points=[];" vertex="1" connectable="0" parent="dYaEgwXNUxHHA8j_fnem-28">
          <mxGeometry x="-0.3" relative="1" as="geometry">
            <mxPoint as="offset" />
          </mxGeometry>
        </mxCell>
        <mxCell id="dYaEgwXNUxHHA8j_fnem-26" value="is http 200?" style="strokeWidth=2;html=1;shape=mxgraph.flowchart.decision;whiteSpace=wrap;strokeColor=#663300;" vertex="1" parent="WIyWlLk6GJQsqaUBKTNV-1">
          <mxGeometry x="1191" y="740" width="100" height="100" as="geometry" />
        </mxCell>
        <mxCell id="dYaEgwXNUxHHA8j_fnem-34" style="edgeStyle=orthogonalEdgeStyle;rounded=0;orthogonalLoop=1;jettySize=auto;html=1;exitX=0;exitY=0.5;exitDx=0;exitDy=0;entryX=1;entryY=0.5;entryDx=0;entryDy=0;" edge="1" parent="WIyWlLk6GJQsqaUBKTNV-1" source="dYaEgwXNUxHHA8j_fnem-27" target="dYaEgwXNUxHHA8j_fnem-33">
          <mxGeometry relative="1" as="geometry" />
        </mxCell>
        <mxCell id="dYaEgwXNUxHHA8j_fnem-27" value="update tokens on store" style="rounded=1;whiteSpace=wrap;html=1;absoluteArcSize=1;arcSize=14;strokeWidth=2;" vertex="1" parent="WIyWlLk6GJQsqaUBKTNV-1">
          <mxGeometry x="1191" y="560" width="100" height="100" as="geometry" />
        </mxCell>
        <mxCell id="dYaEgwXNUxHHA8j_fnem-29" style="edgeStyle=orthogonalEdgeStyle;rounded=0;orthogonalLoop=1;jettySize=auto;html=1;exitX=1;exitY=0.5;exitDx=0;exitDy=0;entryX=0;entryY=0.5;entryDx=0;entryDy=0;entryPerimeter=0;" edge="1" parent="WIyWlLk6GJQsqaUBKTNV-1" source="dYaEgwXNUxHHA8j_fnem-23" target="dYaEgwXNUxHHA8j_fnem-26">
          <mxGeometry relative="1" as="geometry" />
        </mxCell>
        <mxCell id="dYaEgwXNUxHHA8j_fnem-35" style="edgeStyle=orthogonalEdgeStyle;rounded=0;orthogonalLoop=1;jettySize=auto;html=1;exitX=0;exitY=0.5;exitDx=0;exitDy=0;entryX=1;entryY=0.5;entryDx=0;entryDy=0;" edge="1" parent="WIyWlLk6GJQsqaUBKTNV-1" source="dYaEgwXNUxHHA8j_fnem-33" target="dYaEgwXNUxHHA8j_fnem-11">
          <mxGeometry relative="1" as="geometry" />
        </mxCell>
        <mxCell id="dYaEgwXNUxHHA8j_fnem-33" value="update token on request authorization" style="rounded=1;whiteSpace=wrap;html=1;absoluteArcSize=1;arcSize=14;strokeWidth=2;" vertex="1" parent="WIyWlLk6GJQsqaUBKTNV-1">
          <mxGeometry x="1040" y="560" width="100" height="100" as="geometry" />
        </mxCell>
        <mxCell id="dYaEgwXNUxHHA8j_fnem-48" style="edgeStyle=orthogonalEdgeStyle;rounded=0;orthogonalLoop=1;jettySize=auto;html=1;exitX=0.5;exitY=1;exitDx=0;exitDy=0;entryX=0.5;entryY=0;entryDx=0;entryDy=0;" edge="1" parent="WIyWlLk6GJQsqaUBKTNV-1" source="dYaEgwXNUxHHA8j_fnem-37" target="dYaEgwXNUxHHA8j_fnem-47">
          <mxGeometry relative="1" as="geometry" />
        </mxCell>
        <mxCell id="dYaEgwXNUxHHA8j_fnem-37" value="redirect to OIDC login" style="rounded=1;whiteSpace=wrap;html=1;absoluteArcSize=1;arcSize=14;strokeWidth=2;" vertex="1" parent="WIyWlLk6GJQsqaUBKTNV-1">
          <mxGeometry x="170" y="290" width="100" height="100" as="geometry" />
        </mxCell>
        <mxCell id="dYaEgwXNUxHHA8j_fnem-40" value="Forward error to caller" style="strokeWidth=2;html=1;shape=mxgraph.flowchart.terminator;whiteSpace=wrap;strokeColor=#B85450;" vertex="1" parent="WIyWlLk6GJQsqaUBKTNV-1">
          <mxGeometry x="700" y="910" width="100" height="60" as="geometry" />
        </mxCell>
        <mxCell id="dYaEgwXNUxHHA8j_fnem-41" style="edgeStyle=orthogonalEdgeStyle;rounded=0;orthogonalLoop=1;jettySize=auto;html=1;exitX=0.5;exitY=1;exitDx=0;exitDy=0;exitPerimeter=0;entryX=0.5;entryY=0;entryDx=0;entryDy=0;entryPerimeter=0;strokeColor=#B85450;" edge="1" parent="WIyWlLk6GJQsqaUBKTNV-1" source="dYaEgwXNUxHHA8j_fnem-19" target="dYaEgwXNUxHHA8j_fnem-40">
          <mxGeometry relative="1" as="geometry">
            <Array as="points">
              <mxPoint x="750" y="850" />
              <mxPoint x="750" y="850" />
            </Array>
          </mxGeometry>
        </mxCell>
        <mxCell id="dYaEgwXNUxHHA8j_fnem-42" value="NO" style="edgeLabel;html=1;align=center;verticalAlign=middle;resizable=0;points=[];" vertex="1" connectable="0" parent="dYaEgwXNUxHHA8j_fnem-41">
          <mxGeometry x="-0.2286" y="3" relative="1" as="geometry">
            <mxPoint as="offset" />
          </mxGeometry>
        </mxCell>
        <mxCell id="dYaEgwXNUxHHA8j_fnem-44" value="redirect to OIDC login" style="strokeWidth=2;html=1;shape=mxgraph.flowchart.terminator;whiteSpace=wrap;strokeColor=#B85450;" vertex="1" parent="WIyWlLk6GJQsqaUBKTNV-1">
          <mxGeometry x="1191" y="910" width="100" height="60" as="geometry" />
        </mxCell>
        <mxCell id="dYaEgwXNUxHHA8j_fnem-45" style="edgeStyle=orthogonalEdgeStyle;rounded=0;orthogonalLoop=1;jettySize=auto;html=1;exitX=0.5;exitY=1;exitDx=0;exitDy=0;exitPerimeter=0;entryX=0.5;entryY=0;entryDx=0;entryDy=0;entryPerimeter=0;strokeColor=#B85450;" edge="1" parent="WIyWlLk6GJQsqaUBKTNV-1" source="dYaEgwXNUxHHA8j_fnem-26" target="dYaEgwXNUxHHA8j_fnem-44">
          <mxGeometry relative="1" as="geometry" />
        </mxCell>
        <mxCell id="dYaEgwXNUxHHA8j_fnem-46" value="NO" style="edgeLabel;html=1;align=center;verticalAlign=middle;resizable=0;points=[];" vertex="1" connectable="0" parent="dYaEgwXNUxHHA8j_fnem-45">
          <mxGeometry x="-0.2286" y="1" relative="1" as="geometry">
            <mxPoint as="offset" />
          </mxGeometry>
        </mxCell>
        <mxCell id="dYaEgwXNUxHHA8j_fnem-50" style="edgeStyle=orthogonalEdgeStyle;rounded=0;orthogonalLoop=1;jettySize=auto;html=1;exitX=0.5;exitY=1;exitDx=0;exitDy=0;entryX=0.5;entryY=0;entryDx=0;entryDy=0;" edge="1" parent="WIyWlLk6GJQsqaUBKTNV-1" source="dYaEgwXNUxHHA8j_fnem-47" target="dYaEgwXNUxHHA8j_fnem-49">
          <mxGeometry relative="1" as="geometry" />
        </mxCell>
        <mxCell id="dYaEgwXNUxHHA8j_fnem-47" value="OIDC callback with auhtorization code" style="rounded=1;whiteSpace=wrap;html=1;absoluteArcSize=1;arcSize=14;strokeWidth=2;" vertex="1" parent="WIyWlLk6GJQsqaUBKTNV-1">
          <mxGeometry x="170" y="430" width="100" height="100" as="geometry" />
        </mxCell>
        <mxCell id="dYaEgwXNUxHHA8j_fnem-52" style="edgeStyle=orthogonalEdgeStyle;rounded=0;orthogonalLoop=1;jettySize=auto;html=1;exitX=0.5;exitY=1;exitDx=0;exitDy=0;entryX=0.5;entryY=0;entryDx=0;entryDy=0;" edge="1" parent="WIyWlLk6GJQsqaUBKTNV-1" source="dYaEgwXNUxHHA8j_fnem-49" target="dYaEgwXNUxHHA8j_fnem-51">
          <mxGeometry relative="1" as="geometry" />
        </mxCell>
        <mxCell id="dYaEgwXNUxHHA8j_fnem-49" value="get access and refresh token from OIDC" style="rounded=1;whiteSpace=wrap;html=1;absoluteArcSize=1;arcSize=14;strokeWidth=2;" vertex="1" parent="WIyWlLk6GJQsqaUBKTNV-1">
          <mxGeometry x="170" y="570" width="100" height="100" as="geometry" />
        </mxCell>
        <mxCell id="dYaEgwXNUxHHA8j_fnem-56" style="edgeStyle=orthogonalEdgeStyle;rounded=0;orthogonalLoop=1;jettySize=auto;html=1;exitX=0.5;exitY=1;exitDx=0;exitDy=0;entryX=0.5;entryY=0;entryDx=0;entryDy=0;" edge="1" parent="WIyWlLk6GJQsqaUBKTNV-1" source="dYaEgwXNUxHHA8j_fnem-51" target="dYaEgwXNUxHHA8j_fnem-55">
          <mxGeometry relative="1" as="geometry" />
        </mxCell>
        <mxCell id="dYaEgwXNUxHHA8j_fnem-51" value="Save tokens on store" style="rounded=1;whiteSpace=wrap;html=1;absoluteArcSize=1;arcSize=14;strokeWidth=2;" vertex="1" parent="WIyWlLk6GJQsqaUBKTNV-1">
          <mxGeometry x="170" y="710" width="100" height="100" as="geometry" />
        </mxCell>
        <mxCell id="dYaEgwXNUxHHA8j_fnem-55" value="add ticket cookie to request" style="rounded=1;whiteSpace=wrap;html=1;absoluteArcSize=1;arcSize=14;strokeWidth=2;" vertex="1" parent="WIyWlLk6GJQsqaUBKTNV-1">
          <mxGeometry x="170" y="850" width="100" height="100" as="geometry" />
        </mxCell>
        <mxCell id="dYaEgwXNUxHHA8j_fnem-57" value="return to caller" style="strokeWidth=2;html=1;shape=mxgraph.flowchart.terminator;whiteSpace=wrap;strokeColor=#B85450;" vertex="1" parent="WIyWlLk6GJQsqaUBKTNV-1">
          <mxGeometry x="170" y="990" width="100" height="60" as="geometry" />
        </mxCell>
        <mxCell id="dYaEgwXNUxHHA8j_fnem-58" style="edgeStyle=orthogonalEdgeStyle;rounded=0;orthogonalLoop=1;jettySize=auto;html=1;exitX=0.5;exitY=1;exitDx=0;exitDy=0;entryX=0.5;entryY=0;entryDx=0;entryDy=0;entryPerimeter=0;" edge="1" parent="WIyWlLk6GJQsqaUBKTNV-1" source="dYaEgwXNUxHHA8j_fnem-55" target="dYaEgwXNUxHHA8j_fnem-57">
          <mxGeometry relative="1" as="geometry" />
        </mxCell>
      </root>
    </mxGraphModel>
  </diagram>
</mxfile>
